<svg width="416" height="377" viewBox="0 0 416 377" fill="none" xmlns="http://www.w3.org/2000/svg">
<path d="M33.5247 43.9801C29.5482 42.811 27.6084 41.7241 25.0247 38.4801C22.391 35.5246 22.0994 33.0493 22.5247 27.98C25.5131 17.3063 28.1645 12.2134 35.0247 4.48005C40.0247 -0.0199599 47.2179 -0.29799 54.0247 4.48005C61.3712 17.1162 67.3574 22.0076 79.5247 28.98C82.5071 31.5892 82.1832 33.1348 79.0247 35.9801C75.7531 36.7551 75.0249 37.48 71.0247 35.9801C67.0245 34.4801 59.0247 31.98 59.0247 31.98C59.0247 31.98 60.5245 63.9801 59.0247 66.98C57.5249 69.98 52.0249 70.48 50.5247 66.98C49.0245 63.4801 48.5247 46.9801 48.5247 46.9801M33.5247 43.9801C32.5079 39.203 32.1771 36.5579 32.0247 31.98M33.5247 43.9801C36.7275 45.1546 38.5714 45.5439 42.0247 45.4801M42.0247 45.4801C40.3043 40.5419 39.7766 37.6182 40.0247 31.98M42.0247 45.4801C44.5839 46.8243 46.0122 47.1786 48.5247 46.9801M48.5247 46.9801V31.98" stroke="black"/>
<path d="M58.3748 96.6431H56.5466V87.3149H45.3201V85.7915H58.3748V96.6431Z" fill="black"/>
<path d="M205.611 59.506C205.556 65.0607 203.543 66.8122 198.611 69.006C194.367 70.1829 192.161 70.1471 188.611 68.506C177.133 66.3572 166.611 59.0059 165.111 57.006C163.611 55.0062 162.611 47.0059 165.111 43.006C167.611 39.0062 169.901 36.0586 176.611 33.506C185.895 25.6555 190.611 15.506 193.111 12.506C195.611 9.50601 197.611 11.506 198.611 14.006C199.611 16.506 193.111 33.506 193.111 33.506C193.111 33.506 221.611 32.5059 229.111 33.506C236.611 34.5062 236.111 42.0062 229.111 43.006C222.111 44.0059 209.611 43.506 209.611 43.506M205.611 59.506C200.9 60.6725 198.138 60.6382 193.111 60.006M205.611 59.506C208.552 55.6549 209.035 53.573 207.111 50.006M207.111 50.006C202.031 53.0734 198.958 53.5161 193.111 52.506M207.111 50.006C209.68 47.3506 209.739 45.9636 209.611 43.506M209.611 43.506L201.611 44.506H193.111" stroke="black"/>
<path d="M205.866 96.479H192.553V85.7915H194.381V94.979H205.866V96.479Z" fill="black"/>
<path d="M360.243 54.3965C358.923 57.8133 357.015 59.2896 352.243 61.3965C352.243 61.3965 348.743 63.3967 342.743 61.3965C336.742 59.3964 320.743 50.3967 318.243 47.8965C315.742 45.3964 316.242 35.8964 318.243 32.3965C320.243 28.8967 345.243 18.8967 351.743 21.3965C358.242 23.8964 360.243 27.584 360.243 27.584M360.243 54.3965H347.243M360.243 54.3965C362.736 52.8407 363.672 51.7806 364.743 49.3965M364.743 49.3965C358.968 47.1672 355.561 46.5602 349.243 46.3965M364.743 49.3965C364.743 49.3965 387.243 52.3964 389.743 52.3965C392.243 52.3967 396.242 49.3965 391.243 46.3965C386.243 43.3965 356.243 38.3965 356.243 38.3965C356.243 38.3965 384.742 34.8964 388.743 33.3965C392.743 31.8967 392.243 26.3967 387.243 25.8965C382.242 25.3964 360.243 27.584 360.243 27.584M347.243 28.3965L360.243 27.584" stroke="black"/>
<path d="M361.421 87.1978H350.452V95.1196H361.655V96.5962H348.624V85.6743H361.421V87.1978Z" fill="black"/>
<path d="M92.3166 194.819C90.7441 197.396 87.3166 198.819 85.8166 199.319C84.3166 199.819 79.3166 199.819 77.3166 199.319C75.3166 198.819 52.3166 189.819 51.3166 184.319C50.3166 178.819 50.274 177.408 51.3166 171.319C52.3592 165.23 75.8166 155.319 84.3166 156.819C92.8166 158.319 92.3166 162.319 92.3166 162.319M92.3166 194.819L82.8166 191.819M92.3166 194.819C92.3166 194.819 115.794 198.319 117.294 197.643C118.794 196.966 119.294 194.643 117.794 193.819C116.294 192.996 88.3166 183.319 88.3166 183.319C88.3166 183.319 120.294 181.143 121.817 180.643C123.339 180.143 123.794 176.643 121.817 175.643C119.839 174.643 85.8166 172.319 85.8166 172.319C85.8166 172.319 118.794 164.143 120.294 163.143C121.794 162.143 121.294 157.366 119.294 156.819C117.294 156.272 92.3166 162.319 92.3166 162.319M81.8166 162.319H92.3166" stroke="black"/>
<path d="M93.2878 227.481H81.9207V230.927H93.6394V232.45H80.1863V226.005H91.5066V222.606H80.116V221.106H93.2878V227.481Z" fill="black"/>
<path d="M245.437 165.843C245.437 165.843 247.96 167.019 248.437 169.343C248.914 171.667 248.984 172.522 248.437 178.343C247.89 184.164 232.239 198.519 228.437 199.343C224.635 200.167 222.518 200.313 218.937 199.343C212.927 197.715 207.937 192.843 206.937 188.843C205.937 184.843 203.437 159.843 206.937 156.343C210.437 152.843 216.437 155.843 216.437 155.843M245.437 165.843C245.437 165.843 228.937 160.343 226.937 161.343C224.937 162.343 224.937 165.843 226.437 167.843C227.937 169.843 240.437 176.343 240.437 176.343M245.437 165.843L244.984 153.843M225.437 153.843C225.437 153.843 223.437 142.343 225.437 139.343C227.437 136.343 233.937 135.343 234.937 139.343C235.937 143.343 234.937 153.843 234.937 153.843M225.437 153.843C221.674 152.525 219.686 152.912 216.437 155.843M225.437 153.843C224.935 154.045 227.559 175.994 226.937 178.343C226.315 180.692 221.437 179.843 219.937 178.343C218.437 176.843 218.937 172.843 218.937 172.843M225.437 153.843C229.147 155.448 231.227 156.46 234.937 153.843M216.437 155.843C218.141 162.038 218.71 165.743 218.937 172.843M209.937 164.343C209.937 164.343 211.937 170.843 213.937 172.843C215.937 174.843 218.937 172.843 218.937 172.843M234.937 153.843V162.343H235.937V153.843M235.937 153.843C235.937 153.843 235.372 143.843 235.937 139.343C236.502 134.843 243.89 136.843 244.437 139.343C244.984 141.843 244.984 153.843 244.984 153.843M235.937 153.843C239.383 155.632 241.355 155.866 244.984 153.843" stroke="black"/>
<path d="M233.541 232.239H220.416V221.364H233.541V232.239ZM222.267 230.739H231.666V222.888H222.267V230.739Z" fill="black"/>
<path d="M362.613 173.667C362.613 173.667 366.613 187.167 365.113 190.667C363.613 194.167 355.613 201.666 352.613 202.666C349.613 203.666 346.113 203.667 341.113 201.666C336.113 199.666 332.113 193.167 331.113 189.667C330.113 186.167 331.913 151.493 333.113 147.667C334.313 143.84 338.833 144.846 339.113 146.167M362.613 173.667C362.613 173.667 361.613 146.414 360.113 140.667C358.614 134.919 352.731 137.682 353.113 140.167M362.613 173.667C362.613 173.667 359.613 170.167 356.613 168.167C353.613 166.167 346.113 165.667 343.613 167.167C341.113 168.667 341.613 170.667 342.613 173.667C343.613 176.667 352.113 176.667 352.113 176.667M353.113 140.167C354.401 149.737 354.389 155.102 354.113 164.667M353.113 140.167C353.113 140.167 353.113 140.167 353.113 138.167C353.113 136.167 346.113 136.167 346.113 138.167C346.113 140.167 346.113 140.167 346.113 140.167M346.113 165.667C346.715 155.771 346.86 150.203 346.113 140.167M346.113 140.167C346.046 137.251 339.077 135.627 339.113 140.667C339.149 145.706 339.113 146.167 339.113 146.167M339.113 167.667C339.621 159.46 339.755 154.799 339.113 146.167M356.613 182.667C355.425 179.183 354.369 178.01 352.113 176.667M352.113 176.667C345.977 179.605 343.565 182.7 340.613 190.167" stroke="black"/>
<path d="M343.425 224.997H352.753V221.106H354.604V232.333H341.597V221.106H343.425V224.997ZM352.753 230.716V226.591H343.425V230.716H352.753Z" fill="black"/>
<path d="M61.2051 313.433C57.6847 311.944 55.2051 307.433 54.7051 306.433C54.2051 305.433 53.705 298.933 54.7051 296.933C55.7051 294.933 63.2051 277.933 66.7051 274.433C70.2051 270.933 81.2051 272.433 84.2051 274.433C87.2051 276.433 95.2051 291.433 95.2051 296.933C95.2051 302.433 88.2051 313.433 88.2051 313.433M61.2051 313.433V301.433M61.2051 313.433C63.5868 316.583 64.6893 316.584 66.7051 316.933M66.7051 316.933L69.7051 303.933M66.7051 316.933C66.7051 316.933 62.85 334.845 62.7051 340.933C62.5601 347.022 67.7346 344.551 69.7051 340.933C71.6755 337.315 77.2051 311.433 77.2051 311.433C77.2051 311.433 81.4313 334.165 82.7051 338.433C83.9788 342.701 88.4862 342.842 89.2051 337.433C89.9239 332.024 88.2051 313.433 88.2051 313.433M87.7051 301.433L88.2051 313.433" stroke="black"/>
<path d="M75.5803 359.984C75.5803 361.125 75.8577 362.156 76.4124 363.078C76.9749 363.992 77.7444 364.758 78.7209 365.375C79.7053 365.992 80.8225 366.445 82.0725 366.734L81.1819 368.211C79.6663 367.82 78.3381 367.207 77.1975 366.371C76.0647 365.535 75.2209 364.5 74.6663 363.266C74.1116 364.5 73.2639 365.535 72.1233 366.371C70.9905 367.207 69.6663 367.82 68.1506 368.211L67.2366 366.734C68.4866 366.445 69.6038 365.992 70.5881 365.375C71.5725 364.758 72.3459 363.992 72.9084 363.078C73.4709 362.156 73.7522 361.125 73.7522 359.984V356.633H75.5803V359.984Z" fill="black"/>
<path d="M208.852 319.838C210.852 319.838 216.59 304.338 218.59 303.338C220.59 302.338 223.59 301.838 224.59 303.838C225.59 305.838 219.852 322.838 217.852 326.338C215.852 329.838 204.352 341.838 201.352 342.838C198.352 343.838 191.852 344.338 189.852 342.838C187.852 341.338 180.352 333.838 178.852 330.838C177.352 327.838 176.055 288.942 178.852 286.338C181.648 283.734 182.96 284.261 185.213 285.838M208.852 319.838C206.852 319.838 202.852 315.338 202.352 313.338C201.852 311.338 201.852 307.838 202.852 305.838C203.852 303.838 205.852 302.838 207.852 303.338C209.852 303.838 210.852 306.338 212.352 306.338C213.852 306.338 215.852 306.338 216.852 305.338C217.852 304.338 218.082 302.74 217.352 300.838C217.491 300.199 212.832 295.116 208.852 294.338C204.871 293.561 199.221 297.195 196.352 304.338C196.352 304.338 198.334 277.832 197.852 275.338C197.369 272.844 192.969 270.838 192.352 273.838C191.734 276.838 191.734 276.838 191.734 276.838M208.852 319.838C210.531 321.276 210.307 322.668 209.852 324.338M190.352 306.338L191.734 276.838M191.734 276.838C189.303 275.066 185.49 274.838 185.352 277.338C185.213 279.838 185.213 285.838 185.213 285.838M184.852 309.338L185.213 285.838" stroke="black"/>
<path d="M200.839 356.68C202.057 356.688 203.167 356.938 204.167 357.43C205.167 357.922 205.956 358.605 206.534 359.48C207.112 360.348 207.401 361.328 207.401 362.422C207.401 363.508 207.112 364.488 206.534 365.363C205.956 366.23 205.167 366.91 204.167 367.402C203.167 367.895 202.057 368.141 200.839 368.141C199.62 368.141 198.51 367.895 197.51 367.402C196.51 366.91 195.721 366.23 195.143 365.363C194.565 364.488 194.276 363.508 194.276 362.422C194.276 361.328 194.565 360.348 195.143 359.48C195.721 358.605 196.51 357.922 197.51 357.43C198.51 356.938 199.62 356.688 200.839 356.68ZM200.839 358.297C199.956 358.297 199.147 358.477 198.413 358.836C197.686 359.188 197.112 359.68 196.69 360.312C196.276 360.938 196.073 361.641 196.081 362.422C196.073 363.203 196.28 363.914 196.702 364.555C197.124 365.188 197.698 365.688 198.425 366.055C199.151 366.414 199.956 366.594 200.839 366.594C201.721 366.594 202.526 366.414 203.253 366.055C203.979 365.688 204.55 365.188 204.964 364.555C205.385 363.914 205.596 363.203 205.596 362.422C205.596 361.641 205.385 360.938 204.964 360.312C204.55 359.68 203.979 359.188 203.253 358.836C202.526 358.477 201.721 358.297 200.839 358.297Z" fill="black"/>
<path d="M312.559 311.526C310.102 310.324 307.559 308.526 307.059 305.526C306.56 302.526 306.618 300.013 307.059 296.526C308.311 286.647 317.059 276.026 319.059 274.026C321.059 272.026 330.559 271.526 335.059 274.026C339.559 276.526 346.843 294.981 360.559 300.026C362.703 303.365 362.234 304.867 359.059 307.026C359.059 307.026 354.401 306.447 351.559 305.526C346.652 303.936 340.059 299.026 340.059 299.026C340.059 299.026 343.403 336.899 342.559 339.026C341.716 341.154 338.103 343.476 335.059 339.526C332.016 335.577 330.559 308.026 330.559 308.026C330.559 308.026 325.312 340.175 322.059 342.026C318.807 343.877 317.571 343.22 316.059 340.026C314.548 336.833 319.059 317.026 319.059 317.026M312.559 311.526V301.026M312.559 311.526C314.574 315.024 316.093 315.977 319.059 317.026M319.059 317.026L320.559 303.526" stroke="black"/>
<path d="M335.25 359.773C335.25 360.891 335.512 361.914 336.035 362.844C336.559 363.766 337.285 364.551 338.215 365.199C339.145 365.84 340.211 366.32 341.414 366.641L340.523 368.117C339.062 367.688 337.793 367.035 336.715 366.16C335.645 365.285 334.859 364.223 334.359 362.973C333.844 364.223 333.047 365.285 331.969 366.16C330.898 367.035 329.641 367.688 328.195 368.117L327.281 366.641C328.477 366.32 329.535 365.84 330.457 365.199C331.387 364.551 332.113 363.766 332.637 362.844C333.16 361.914 333.422 360.891 333.422 359.773V358.32H327.891V356.797H340.852V358.32H335.25V359.773Z" fill="black"/>
</svg>
